<svg width="39" height="64" viewBox="0 0 39 64" fill="none" xmlns="http://www.w3.org/2000/svg">
<path d="M0.648712 36.2967C0.648712 36.2967 2.66808 36.775 3.11856 36.5837C3.63165 36.3658 4.7648 35.8846 4.7648 35.8846L23.2955 56.7369L21.5753 56.8805L0.648712 36.2967Z" fill="#626231"/>
<path d="M15.0439 63.5656L13.9647 63.6514L21.9342 56.6019C21.9342 56.6019 22.7082 56.6511 23.0587 56.6733C23.3664 56.6929 24.5278 56.4152 24.5278 56.4152L15.0439 63.5656Z" fill="#626231"/>
<path d="M37.4145 52.451C37.4145 52.451 29.9725 55.0375 22.9094 46.006C21.8987 44.7656 19.8762 39.7456 19.8425 39.4735C19.3616 35.5981 20.5787 31.7881 20.5787 31.7881L28.1412 31.8866C28.1412 31.8866 34.7741 35.0005 37.096 44.9248C38.6148 49.4383 37.4145 52.451 37.4145 52.451V52.451Z" fill="#B4ABA8" stroke="black" stroke-miterlimit="10"/>
<path d="M12.6281 43.8897C12.6281 43.8897 8.28327 36.4613 8.28327 36.3661C8.28327 36.2004 6.52974 30.4586 9.09296 29.9764C11.8133 29.4646 17.3469 30.2267 21.9282 33.0996C26.5096 35.9726 18.6385 37.8565 25.8192 47.9351C29.3749 52.9258 12.6281 43.8897 12.6281 43.8897V43.8897Z" fill="#EDD788" stroke="black" stroke-width="0.5" stroke-miterlimit="10"/>
<path d="M12.7558 43.7036C12.7558 43.7036 9.09081 39.7569 8.14535 36.1823C7.38249 33.298 6.95117 29.9151 9.24945 29.4133C11.5477 28.9115 16.7748 29.6587 20.6453 32.4755C24.5157 35.2923 17.866 37.1394 23.9325 47.0211C26.9365 51.9142 12.7559 43.7037 12.7559 43.7037L12.7558 43.7036Z" fill="white" stroke="black" stroke-miterlimit="10"/>
<path d="M38.1407 17.0768C38.1407 26.0016 30.8256 33.2366 21.802 33.2366C12.7784 33.2366 5.46329 26.0016 5.46329 17.0768C5.46329 8.15191 20.7327 1.39218 29.7563 1.39218C34.0491 1.39218 24.6262 5.40597 27.542 8.08369C30.7554 11.0347 38.1407 12.3976 38.1407 17.0768V17.0768Z" fill="#B4ABA8" stroke="black" stroke-miterlimit="10"/>
<path d="M25.9862 18.4072C25.9862 24.9344 21.2279 30.2256 15.3582 30.2256C9.48843 30.2256 4.7301 24.9344 4.7301 18.4072C4.7301 11.8801 14.6626 6.93643 20.5323 6.93643C23.3247 6.93643 17.1952 9.8719 19.0919 11.8302C21.1822 13.9885 25.9862 14.9852 25.9862 18.4072V18.4072Z" fill="white" stroke="black" stroke-miterlimit="10"/>
<path d="M10.9874 14.2029C10.9874 15.1983 10.3412 16.0053 9.54413 16.0053C8.74706 16.0053 8.10089 15.1983 8.10089 14.2029C8.10089 13.2074 8.74704 12.4004 9.54413 12.4004C10.3412 12.4004 10.9874 13.2074 10.9874 14.2029Z" fill="#232222" stroke="#232222" stroke-width="0.5" stroke-miterlimit="10"/>
<path d="M16.7727 17.0477C16.7727 18.0431 16.1266 18.8501 15.3295 18.8501C14.5324 18.8501 13.8863 18.0431 13.8863 17.0477C13.8863 16.0522 14.5324 15.2452 15.3295 15.2452C16.1266 15.2452 16.7727 16.0522 16.7727 17.0477Z" fill="#232222" stroke="#232222" stroke-width="0.5" stroke-miterlimit="10"/>
<path d="M7.73703 39.4023C8.27288 38.7176 10.1293 38.2579 10.1293 38.2579L10.5611 38.7376C10.5611 38.7376 8.99184 39.6579 8.60459 40.3399C8.26162 40.9438 8.45014 43.3434 8.45014 43.3434C8.45014 43.3434 5.81423 41.8595 7.73703 39.4024V39.4023Z" fill="#B4ABA8" stroke="#232222" stroke-width="0.5" stroke-miterlimit="10"/>
<path d="M9.41624 41.0816C9.95209 40.3968 11.8085 39.9371 11.8085 39.9371L12.2403 40.4169C12.2403 40.4169 10.671 41.3372 10.2838 42.0191C10.1541 42.2474 10.1293 45.0226 10.1293 45.0226C10.1293 45.0226 7.49344 43.5387 9.41624 41.0816Z" fill="#B4ABA8" stroke="#232222" stroke-width="0.5" stroke-miterlimit="10"/>
<path d="M13.4174 43.3757C14.0325 42.5897 16.1633 42.062 16.1633 42.062L16.659 42.6127C16.659 42.6127 14.8577 43.669 14.4132 44.4518C14.0195 45.145 14.2359 47.8993 14.2359 47.8993C14.2359 47.8993 11.2104 46.1961 13.4174 43.3757V43.3757Z" fill="#B4ABA8" stroke="#232222" stroke-width="0.5" stroke-miterlimit="10"/>
<path d="M15.3449 45.3031C15.9599 44.5171 18.0908 43.9894 18.0908 43.9894L18.5864 44.5401C18.5864 44.5401 16.7852 45.5965 16.3406 46.3792C16.1918 46.6413 16.1633 49.8268 16.1633 49.8268C16.1633 49.8268 13.1378 48.1235 15.3448 45.3031H15.3449Z" fill="#B4ABA8" stroke="#232222" stroke-width="0.5" stroke-miterlimit="10"/>
<path d="M1.41095 18.5267C1.41095 18.5267 5.84935 15.8352 7.81686 16.2347C13.6369 16.6455 13.3867 20.9587 13.3867 20.9587C13.3867 20.9587 11.8709 26.5913 6.31024 24.9038C2.52424 23.233 1.41095 18.5267 1.41095 18.5267Z" fill="#EDD788" stroke="#232222" stroke-width="0.5" stroke-miterlimit="10"/>
</svg>
